<svg xmlns="http://www.w3.org/2000/svg" xmlns:svgjs="http://svgjs.com/svgjs" xmlns:xlink="http://www.w3.org/1999/xlink" width="288" height="288"><svg xmlns="http://www.w3.org/2000/svg" width="288" height="288" viewBox="0 0 16 16"><g fill="#f26419" class="color231f20 svgShape" data-name="Layer 2"><path d="M8 2a6 6 0 1 0 6 6 6 6 0 0 0-6-6Zm0 11a5 5 0 1 1 5-5 5 5 0 0 1-5 5Z" class="color000 svgShape"/><path d="M8 6.85a.5.5 0 0 0-.5.5v3.4a.5.5 0 0 0 1 0v-3.4a.5.5 0 0 0-.5-.5zM8 4.8a.53.53 0 0 0-.51.52v.08a.47.47 0 0 0 .51.47.52.52 0 0 0 .5-.5v-.12A.45.45 0 0 0 8 4.8z" class="color000 svgShape"/></g></svg></svg>