<svg xmlns="http://www.w3.org/2000/svg" xmlns:svgjs="http://svgjs.com/svgjs" xmlns:xlink="http://www.w3.org/1999/xlink" width="288" height="288"><svg xmlns="http://www.w3.org/2000/svg" width="288" height="288" viewBox="0 0 32 32"><path fill="#1ea896" d="M29 13H13a1 1 0 0 0-.71.29l-2 2a1 1 0 0 0 0 1.42l2 2A1 1 0 0 0 13 19h16a2 2 0 0 0 2-2v-2a2 2 0 0 0-2-2zm0-11.5H13a1 1 0 0 0-.71.29l-2 2a1 1 0 0 0 0 1.42l2 2a1 1 0 0 0 .71.29h16a2 2 0 0 0 2-2v-2a2 2 0 0 0-2-2zm0 23H13a1 1 0 0 0-.71.29l-2 2a1 1 0 0 0 0 1.42l2 2a1 1 0 0 0 .71.29h16a2 2 0 0 0 2-2v-2a2 2 0 0 0-2-2z" class="colorb2b2b2 svgShape"/><circle cx="4.5" cy="16" r="3.5" fill="#0b8071" class="color000 svgShape"/><circle cx="4.5" cy="4.5" r="3.5" fill="#0b8071" class="color000 svgShape"/><circle cx="4.5" cy="27.5" r="3.5" fill="#0b8071" class="color000 svgShape"/></svg></svg>